Coordinates
version=1
nRows=24
nColumns=22
inDegrees=yes

Units are S.I. units (second, meters, Newtons, ...)
If the header above contains a line with 'inDegrees', this indicates whether rotational values are in degrees (yes) or radians (no).

endheader
time	pelvis_tilt	pelvis_list	pelvis_rotation	pelvis_tx	pelvis_ty	pelvis_tz	hip_flexion_r	hip_adduction_r	hip_rotation_r	knee_angle_r	ankle_angle_r	subtalar_angle_r	hip_flexion_l	hip_adduction_l	hip_rotation_l	knee_angle_l	ankle_angle_l	subtalar_angle_l	lumbar_extension	lumbar_bending	lumbar_rotation
      1.16000000	     -0.66710547	      1.83125602	    -34.89359795	     -0.96266275	      0.90007736	     -0.43263575	     -2.33736386	     -2.73538348	     -7.36673667	     -8.16140030	     19.92409985	     -3.71490720	     -0.33190607	     -1.58512625	    -12.92940011	    -11.95291880	     17.75109255	      0.26932582	     -4.32263238	     -3.06361607	      4.99518362
      1.17000000	     -0.69307672	      1.85311940	    -34.93171705	     -0.96193080	      0.89993128	     -0.43239417	     -2.31373354	     -2.76668639	     -7.32253935	     -8.22587188	     19.95937161	     -3.70488859	     -0.31467394	     -1.56810552	    -12.91757589	    -12.02455863	     17.79103199	      0.26292020	     -4.37515784	     -3.08533250	      4.99330876
      1.18000000	     -0.74490798	      1.90691948	    -34.99820345	     -0.96116800	      0.89969124	     -0.43209347	     -2.22507657	     -2.81621241	     -7.29082363	     -8.33135156	     20.10527397	     -3.67596260	     -0.27243282	     -1.53932838	    -12.98489238	    -12.07780136	     17.91592676	      0.23407494	     -4.37210362	     -3.12417754	      5.02943767
      1.19000000	     -0.77878310	      1.93217065	    -35.03191781	     -0.96035893	      0.89951077	     -0.43185008	     -2.20207010	     -2.84779252	     -7.25183070	     -8.38788634	     20.14781816	     -3.66455330	     -0.25742636	     -1.51948295	    -12.97272166	    -12.13842549	     17.96186322	      0.22637715	     -4.41933873	     -3.14180536	      5.02913716
      1.20000000	     -0.82789381	      1.97842863	    -35.07691749	     -0.95951895	      0.89926345	     -0.43157614	     -2.14374003	     -2.89191904	     -7.22227346	     -8.46370732	     20.27941710	     -3.63982315	     -0.23200649	     -1.48955711	    -13.00443634	    -12.17610914	     18.08650059	      0.20804689	     -4.43840133	     -3.17464215	      5.04936771
      1.21000000	     -0.88790423	      2.02367170	    -35.11595956	     -0.95862338	      0.89900165	     -0.43131867	     -2.08506392	     -2.93031227	     -7.20021110	     -8.53056894	     20.38263170	     -3.61422702	     -0.19830652	     -1.46352554	    -13.02799129	    -12.21760093	     18.18540289	      0.18185851	     -4.44880436	     -3.19321813	      5.07378486
      1.22000000	     -0.95692690	      2.07395084	    -35.14561021	     -0.95766087	      0.89871949	     -0.43106633	     -2.03073678	     -2.96840237	     -7.18296833	     -8.57831292	     20.48508112	     -3.58615528	     -0.16463314	     -1.43480166	    -13.04909574	    -12.24244823	     18.28813434	      0.15382594	     -4.44769149	     -3.20799530	      5.08567988
      1.23000000	     -1.02870618	      2.12834307	    -35.16818508	     -0.95665740	      0.89842809	     -0.43083696	     -1.97431732	     -3.01080286	     -7.17107450	     -8.62668397	     20.58703371	     -3.55470850	     -0.12447146	     -1.40174530	    -13.06125045	    -12.27130027	     18.39036641	      0.12281806	     -4.44927551	     -3.22498627	      5.10642638
      1.24000000	     -1.10698159	      2.19112690	    -35.18526878	     -0.95558114	      0.89812088	     -0.43061931	     -1.91630110	     -3.05962535	     -7.16209183	     -8.66540180	     20.69301103	     -3.51886625	     -0.08273301	     -1.36130427	    -13.07603157	    -12.28846373	     18.49224169	      0.08931853	     -4.44065590	     -3.24389808	      5.11746144
      1.25000000	     -1.18521999	      2.25942160	    -35.19589350	     -0.95446184	      0.89781018	     -0.43042904	     -1.85728423	     -3.11632598	     -7.15390411	     -8.70696809	     20.79941876	     -3.47776702	     -0.02976115	     -1.31402867	    -13.07668707	    -12.32009148	     18.59083932	      0.05197860	     -4.43855760	     -3.27100184	      5.14201093
      1.26000000	     -1.26412144	      2.33270508	    -35.20395233	     -0.95325949	      0.89749354	     -0.43024760	     -1.80656382	     -3.18096729	     -7.14806742	     -8.73461646	     20.90670540	     -3.43514888	      0.02380382	     -1.26005332	    -13.07457153	    -12.35349866	     18.68869836	      0.01506871	     -4.43179450	     -3.30005351	      5.16084741
      1.27000000	     -1.36816336	      2.42355124	    -35.21307097	     -0.95200590	      0.89712727	     -0.43008246	     -1.70200739	     -3.25168465	     -7.15178914	     -8.80699263	     21.03597063	     -3.36159579	      0.11633699	     -1.20389622	    -13.07437733	    -12.40234075	     18.80246731	     -0.06415852	     -4.39231410	     -3.32604751	      5.17155925
      1.28000000	     -1.43195547	      2.47487371	    -35.20966844	     -0.95068472	      0.89685724	     -0.42990481	     -1.71021090	     -3.30639565	     -7.14914252	     -8.79140493	     21.08514252	     -3.34136137	      0.16065499	     -1.15988083	    -13.03880871	    -12.48043183	     18.85316008	     -0.07850533	     -4.42781245	     -3.35155630	      5.22793572
      1.29000000	     -1.53955518	      2.58308302	    -35.19378754	     -0.94930550	      0.89645252	     -0.42975097	     -1.61577109	     -3.39166440	     -7.15318769	     -8.84136245	     21.26049131	     -3.26775028	      0.28434989	     -1.09281582	    -13.02104064	    -12.56676889	     19.04095177	     -0.15303452	     -4.38440445	     -3.40113064	      5.22394674
      1.30000000	     -1.68789216	      2.68399092	    -35.16989134	     -0.94793883	      0.89601849	     -0.42962126	     -1.47744837	     -3.44643074	     -7.19412932	     -8.91098756	     21.35850777	     -3.16808228	      0.47824889	     -1.06412355	    -12.96269300	    -12.72506707	     19.16452392	     -0.29946778	     -4.32410641	     -3.42365551	      5.27500631
      1.31000000	     -1.76523561	      2.75697602	    -35.14813890	     -0.94643179	      0.89568216	     -0.42944054	     -1.47565351	     -3.51762775	     -7.19005726	     -8.89571732	     21.46775613	     -3.13148882	      0.55791709	     -1.00802661	    -12.91108851	    -12.83588104	     19.29799535	     -0.33488624	     -4.34703354	     -3.46502813	      5.29940326
      1.32000000	     -1.90729353	      2.84465717	    -35.11220237	     -0.94491540	      0.89524526	     -0.42930573	     -1.36259520	     -3.56941563	     -7.25422810	     -8.96620521	     21.58516267	     -3.06340110	      0.73054154	     -0.98200896	    -12.82907011	    -12.99200608	     19.45810320	     -0.46158710	     -4.31089673	     -3.47726833	      5.33947442
      1.33000000	     -2.02365928	      2.92410570	    -35.07925249	     -0.94330134	      0.89483543	     -0.42915300	     -1.30649977	     -3.63031509	     -7.28686900	     -8.99462535	     21.70628394	     -3.01176513	      0.85982655	     -0.94036657	    -12.73796532	    -13.13072743	     19.62494279	     -0.56159920	     -4.30870349	     -3.49898996	      5.37443368
      1.34000000	     -2.14546972	      3.00026422	    -35.04096918	     -0.94160864	      0.89441143	     -0.42900736	     -1.25187110	     -3.68781716	     -7.32659826	     -9.02434132	     21.82756038	     -2.97073994	      0.98951179	     -0.90155933	    -12.63482394	    -13.27046990	     19.79928216	     -0.65994348	     -4.30696364	     -3.51190747	      5.40959165
      1.35000000	     -2.24813112	      3.06936778	    -35.00791011	     -0.93982131	      0.89400279	     -0.42883723	     -1.24493770	     -3.74947831	     -7.32965339	     -9.01583300	     21.96071551	     -2.94410676	      1.08349226	     -0.85012645	    -12.52396651	    -13.39548255	     19.98204400	     -0.70889506	     -4.32867175	     -3.53473307	      5.44562683
      1.36000000	     -2.37855526	      3.14108446	    -34.95865419	     -0.93795503	      0.89353947	     -0.42869304	     -1.20074790	     -3.80209867	     -7.37656175	     -9.04031844	     22.09963745	     -2.91948459	      1.21518841	     -0.81203596	    -12.38794869	    -13.54676968	     20.19720860	     -0.79508488	     -4.32558269	     -3.54151421	      5.48700945
      1.37000000	     -2.51954519	      3.21841327	    -34.90376440	     -0.93599200	      0.89304404	     -0.42854503	     -1.15706667	     -3.85476779	     -7.42115725	     -9.05323080	     22.23636478	     -2.89746829	      1.35961070	     -0.77107142	    -12.23995661	    -13.70796140	     20.41303268	     -0.90236897	     -4.30801622	     -3.54896770	      5.52362185
      1.38000000	     -2.69277193	      3.30209889	    -34.84039299	     -0.93394803	      0.89249292	     -0.42841177	     -1.06673917	     -3.89877116	     -7.51257328	     -9.10149504	     22.34385397	     -2.88256754	      1.54920793	     -0.74193094	    -12.07710713	    -13.90319773	     20.61024934	     -1.11357091	     -4.25654415	     -3.54190592	      5.56415609
      1.39000000	     -2.79821191	      3.37280304	    -34.79893635	     -0.93173434	      0.89200773	     -0.42819435	     -1.10600862	     -3.96803036	     -7.50768149	     -9.05486928	     22.49045348	     -2.86927208	      1.62158273	     -0.67048285	    -11.94057971	    -14.03289462	     20.81057974	     -1.16676752	     -4.26785566	     -3.57133906	      5.61625384
